<svg height="469pt" viewBox="-10 0 469 469.44792" width="469pt" xmlns="http://www.w3.org/2000/svg"><path d="m334.546875 234.667969v-21.335938c20.09375.003907 38.207031-12.101562 45.894531-30.664062 7.691406-18.5625 3.4375-39.929688-10.769531-54.136719l15.082031-15.082031c20.3125 20.304687 26.390625 50.847656 15.398438 77.382812-10.992188 26.535157-36.882813 43.835938-65.605469 43.835938zm0 0" fill="#669ede"/><path d="m192.222656 71.011719h-21.332031c-.003906-28.722657 17.296875-54.617188 43.832031-65.605469 26.535156-10.992188 57.078125-4.914062 77.386719 15.394531l-15.082031 15.085938c-14.207032-14.210938-35.574219-18.460938-54.136719-10.773438-18.566406 7.691407-30.667969 25.804688-30.667969 45.898438zm0 0" fill="#669ede"/><path d="m384.222656 64c0-23.5625-19.101562-42.667969-42.664062-42.667969h-298.667969c-23.5625 0-42.667969 19.105469-42.667969 42.667969v341.332031h341.335938c23.5625 0 42.664062-19.101562 42.664062-42.664062zm0 0" fill="#7f006e"/><path d="m384.222656 64h-21.332031c-.015625-11.777344-9.558594-21.316406-21.332031-21.332031h-298.667969v-21.335938h298.667969c23.554687.023438 42.640625 19.113281 42.664062 42.667969zm0 0" fill="#a24696"/><path d="m192.222656 21.332031h85.335938v21.335938h-85.335938zm0 0" fill="#962e88"/><path d="m64.222656 42.667969h298.667969v362.664062h-298.667969zm0 0" fill="#afc3e9"/><path d="m42.890625 64h298.667969v362.667969h-298.667969zm0 0" fill="#cfdbf2"/><path d="m320.222656 128c0-23.5625-19.101562-42.667969-42.664062-42.667969h-256v-21.332031h-21.335938v341.332031c0 23.566407 19.105469 42.667969 42.667969 42.667969h234.667969c23.5625 0 42.664062-19.101562 42.664062-42.667969zm0 0" fill="#a24696"/><path d="m64.222656 85.332031h-42.664062v-21.332031h-21.335938v341.332031c0 23.566407 19.105469 42.667969 42.667969 42.667969h21.332031zm0 0" fill="#962e88"/><path d="m42.890625 106.667969h21.332031v320h-21.332031zm0 0" fill="#6f0060"/><path d="m64.222656 106.667969h21.335938v320h-21.335938zm0 0" fill="#af60a5"/><path d="m302.015625 252.875-131.65625-131.65625c-6.023437-6.007812-10.910156-13.054688-14.425781-20.800781l19.414062-8.835938c2.464844 5.417969 5.882813 10.347657 10.09375 14.554688l131.65625 131.65625zm0 0" fill="#962e88"/><path d="m106.890625 149.332031h149.332031v106.667969h-149.332031zm0 0" fill="#e6ecf8"/><path d="m195.347656 146.207031 15.085938-15.082031 53.332031 53.332031-15.082031 15.085938zm0 0" fill="#afc3e9"/><path d="m320.222656 128h-21.332031c-.015625-11.777344-9.558594-21.316406-21.332031-21.332031h-234.667969c-23.5625 0-42.667969-19.105469-42.667969-42.667969s19.105469-42.667969 42.667969-42.667969v21.335938c-11.777344.007812-21.320313 9.554687-21.320313 21.332031s9.542969 21.324219 21.320313 21.332031h234.667969c23.554687.023438 42.640625 19.113281 42.664062 42.667969zm0 0" fill="#bc7bb3"/><path d="m320.222656 405.332031h-21.332031v-277.332031c-.015625-11.777344-9.558594-21.316406-21.332031-21.332031v-21.335938c23.554687.023438 42.640625 19.113281 42.664062 42.667969zm0 0" fill="#962e88"/><path d="m170.359375 121.21875c-9.183594-9.183594-15.675781-20.707031-18.769531-33.324219l20.726562-5.082031c2.15625 8.828125 6.699219 16.898438 13.125 23.324219zm0 0" fill="#962e88"/><path d="m334.546875 234.667969c-18.84375.050781-36.921875-7.441407-50.207031-20.804688l-92.648438-92.644531c-20.308594-20.308594-26.386718-50.851562-15.394531-77.386719 10.988281-26.535156 36.882813-43.83593725 65.605469-43.832031v21.332031c-20.09375 0-38.207032 12.101563-45.898438 30.667969-7.6875 18.5625-3.4375 39.929688 10.773438 54.136719l92.644531 92.644531c14.207031 14.207031 35.574219 18.460938 54.136719 10.769531 18.5625-7.6875 30.667968-25.800781 30.664062-45.894531h21.335938c-.046875 39.199219-31.8125 70.964844-71.011719 71.011719zm0 0" fill="#669ede"/><path d="m170.890625 448h21.332031v21.332031h-21.332031zm0 0" fill="#2c2b46"/><path d="m362.890625 234.667969 33.832031-33.832031c11.78125-11.78125 30.882813-11.78125 42.664063 0s11.78125 30.886718 0 42.667968l-33.828125 33.828125zm0 0" fill="#2c2b46"/><path d="m413.097656 269.792969-15.082031-15.085938 26.292969-26.289062c3.429687-3.460938 3.429687-9.039063 0-12.5l15.082031-15.085938c11.765625 11.789063 11.765625 30.878907 0 42.667969zm0 0" fill="#1f1e3c"/><path d="m170.890625 448 21.332031 21.332031c27.320313 0 53.519532-10.851562 72.835938-30.167969l155.582031-155.582031c8.332031-8.332031 8.332031-21.839843 0-30.171875l-33.828125-33.828125c-8.332031-8.332031-21.839844-8.332031-30.171875 0l-155.582031 155.582031c-19.316406 19.316407-30.167969 45.515626-30.167969 72.835938zm0 0" fill="#4186d6"/><path d="m192.328125 469.449219-18.207031-18.230469 15.082031-15.082031 11.417969 11.414062c18.628906-2.015625 36.027344-10.289062 49.351562-23.46875l155.585938-155.582031-16.917969-16.917969 15.082031-15.082031 16.917969 16.917969c8.332031 8.328125 8.332031 21.835937 0 30.164062l-155.582031 155.585938c-18.210938 18.027343-42.421875 28.726562-68.011719 30.050781zm0 0" fill="#1e70ce"/><path d="m320.222656 256 21.335938-21.332031 64 64-21.335938 21.332031zm0 0" fill="#95afe2"/><path d="m422.472656 281.75c-5.890625-5.890625-15.441406-5.890625-21.332031 0l-38.25 38.25v21.332031l-42.667969 42.667969h-21.332031l-16.914063 16.914062c-5.890624 5.890626-5.890624 15.441407 0 21.335938 5.890626 5.890625 15.441407 5.890625 21.332032 0l119.164062-119.164062c5.890625-5.890626 5.890625-15.441407 0-21.335938zm0 0" fill="#cfdbf2"/><path d="m216.683594 387.125 138.664062-138.667969 15.085938 15.085938-138.667969 138.664062zm0 0" fill="#669ede"/><path d="m334.003906 269.800781 21.34375-21.34375 15.085938 15.085938-21.34375 21.34375zm0 0" fill="#cfdbf2"/><path d="m64.222656 85.332031h21.335938v21.335938h-21.335938zm0 0" fill="#a24696"/><path d="m42.890625 85.332031h21.332031v21.335938h-21.332031zm0 0" fill="#962e88"/></svg>