<svg viewBox="0 0 466.104 466.104" xmlns="http://www.w3.org/2000/svg"><path d="m0 0h464v288h-464zm0 0" fill="#ebebeb"/><path d="m168 168h48v120h-48zm0 0" fill="#1cc8eb"/><path d="m248 104h48v184h-48zm0 0" fill="#1cc8eb"/><path d="m328 64h48v224h-48zm0 0" fill="#1cc8eb"/><path d="m31.238281 401.894531-15.238281 22.105469 24 24 22.105469-15.199219c2.203125-1.519531 5.019531-1.835937 7.507812-.839843 2.484375.992187 4.308594 3.164062 4.859375 5.78125l5.527344 26.257812h32l5.527344-26.296875c.550781-2.617187 2.375-4.789063 4.859375-5.785156 2.488281-.992188 5.304687-.675781 7.507812.84375l22.105469 15.238281 24-24-15.199219-22.105469c-1.519531-2.203125-1.835937-5.019531-.839843-7.507812.992187-2.484375 3.164062-4.308594 5.78125-4.859375l26.257812-5.527344v-32l-26.296875-5.527344c-2.617187-.550781-4.789063-2.375-5.785156-4.859375-.992188-2.488281-.675781-5.304687.84375-7.507812l15.238281-22.105469-24-24-22.105469 15.238281c-2.203125 1.519531-5.019531 1.835938-7.507812.84375-2.484375-.996093-4.308594-3.167969-4.859375-5.785156l-5.527344-26.296875h-32l-5.527344 26.296875c-.550781 2.617187-2.375 4.789063-4.859375 5.785156-2.488281.992188-5.304687.675781-7.507812-.84375l-22.105469-15.238281-24 24 15.238281 22.105469c1.519531 2.203125 1.835938 5.019531.84375 7.507812-.996093 2.484375-3.167969 4.308594-5.785156 4.859375l-26.296875 5.527344v32l26.296875 5.527344c2.617187.550781 4.789063 2.375 5.785156 4.859375.992188 2.488281.675781 5.304687-.84375 7.507812zm64.761719-73.894531c22.089844 0 40 17.910156 40 40s-17.910156 40-40 40-40-17.910156-40-40 17.910156-40 40-40zm0 0" fill="#f0be59"/><path d="m428.207031 373.414062 31.113281 4.449219 6.785157-47.519531-31.113281-4.449219c-6.40625-.914062-11.632813-5.597656-13.238282-11.867187-1.605468-6.269532.722656-12.890625 5.902344-16.769532l25.144531-18.859374-28.800781-38.398438-25.144531 18.855469c-5.175781 3.882812-12.183594 4.265625-17.753907.96875-5.566406-3.296875-8.601562-9.625-7.6875-16.03125l4.449219-31.113281-1.863281-.265626-45.65625-6.519531-4.449219 31.113281c-.914062 6.40625-5.597656 11.632813-11.867187 13.238282-6.269532 1.605468-12.890625-.722656-16.769532-5.902344l-18.859374-25.144531-30.398438 22.800781-8 6 18.855469 25.144531c3.882812 5.175781 4.265625 12.183594.96875 17.753907-3.296875 5.566406-9.625 8.601562-16.03125 7.6875l-31.113281-4.449219-6.785157 47.519531 31.113281 4.449219c6.40625.914062 11.632813 5.597656 13.238282 11.867187 1.605468 6.269532-.722656 12.890625-5.902344 16.769532l-25.144531 18.859374 28.800781 38.398438 25.144531-18.855469c5.175781-3.882812 12.183594-4.265625 17.753907-.96875 5.566406 3.296875 8.601562 9.625 7.6875 16.03125l-4.449219 31.113281 47.519531 6.785157 4.449219-31.113281c.914062-6.40625 5.597656-11.632813 11.867187-13.238282 6.269532-1.605468 12.890625.722656 16.769532 5.902344l18.859374 25.144531 38.398438-28.800781-18.855469-25.144531c-3.882812-5.175781-4.265625-12.183594-.96875-17.753907 3.296875-5.566406 9.625-8.601562 16.03125-7.6875zm-92.207031 18.585938c-30.929688 0-56-25.070312-56-56s25.070312-56 56-56 56 25.070312 56 56-25.070312 56-56 56zm0 0" fill="#ffb41f"/><path d="m115.359375 288h20.640625v-88h-48v72h24zm0 0" fill="#1cc8eb"/><path d="m313.601562 24.160156-40-8-3.203124 15.679688 19.394531 3.886718-213.839844 125.371094 8.09375 13.804688 216.609375-126.972656-4.496094 22.46875 15.679688 3.136718 8-40c.84375-4.308594-1.941406-8.492187-6.238282-9.375zm0 0" fill="#74d5e8"/><g fill="#8c8c8c"><path d="m24 208h16v56h-16zm0 0"/><path d="m24 176h16v16h-16zm0 0"/><path d="m424 96h16v120h-16zm0 0"/><path d="m424 64h16v16h-16zm0 0"/></g><path d="m176 448h16v16h-16zm0 0" fill="#f0be59"/><path d="m208 448h16v16h-16zm0 0" fill="#ffb41f"/><path d="m240 448h16v16h-16zm0 0" fill="#ffb41f"/></svg>