<?xml version="1.0"?>
<svg xmlns="http://www.w3.org/2000/svg" xmlns:xlink="http://www.w3.org/1999/xlink" viewBox="0 0 64 64" width="512" height="512"><defs><linearGradient id="New_Gradient_Swatch_copy" x1="31.456" y1="62.356" x2="32.465" y2="1.477" gradientUnits="userSpaceOnUse"><stop offset="0" stop-color="#e93e3a"/><stop offset="0.36" stop-color="#ed683c"/><stop offset="0.716" stop-color="#f3903f"/><stop offset="1" stop-color="#fdc70c"/></linearGradient><linearGradient id="New_Gradient_Swatch_copy-2" x1="45.726" y1="62.538" x2="46.735" y2="1.658" xlink:href="#New_Gradient_Swatch_copy"/><linearGradient id="New_Gradient_Swatch_copy-3" x1="26.416" y1="62.218" x2="27.425" y2="1.338" xlink:href="#New_Gradient_Swatch_copy"/><linearGradient id="New_Gradient_Swatch_copy-4" x1="15.602" y1="62.039" x2="16.611" y2="1.159" xlink:href="#New_Gradient_Swatch_copy"/><linearGradient id="New_Gradient_Swatch_copy-5" x1="25.599" y1="62.204" x2="26.608" y2="1.325" xlink:href="#New_Gradient_Swatch_copy"/><linearGradient id="New_Gradient_Swatch_copy-6" x1="22.666" y1="62.156" x2="23.675" y2="1.276" xlink:href="#New_Gradient_Swatch_copy"/><linearGradient id="New_Gradient_Swatch_copy-7" x1="17.734" y1="62.074" x2="18.743" y2="1.194" xlink:href="#New_Gradient_Swatch_copy"/><linearGradient id="New_Gradient_Swatch_copy-8" x1="26.731" y1="62.223" x2="27.74" y2="1.344" xlink:href="#New_Gradient_Swatch_copy"/></defs><g id="Medical_Report-2" data-name="Medical Report"><path d="M59,46A13.014,13.014,0,0,0,49,33.363V13a5.006,5.006,0,0,0-5-5H41a1,1,0,0,0-1-1H29.22a3,3,0,1,0-4.44,0H14a1,1,0,0,0-1,1H10a5.006,5.006,0,0,0-5,5V57a5.006,5.006,0,0,0,5,5H44a5.024,5.024,0,0,0,4.684-3.282A13.02,13.02,0,0,0,59,46ZM27,4a1,1,0,1,1-1,1A1,1,0,0,1,27,4Zm17,6a3,3,0,0,1,3,3V33.051c-.331-.026-.662-.051-1-.051a13.056,13.056,0,0,0-2,.17V14a2,2,0,0,0-2-2H41V10ZM15,9H39v5a1,1,0,0,1-1,1H16a1,1,0,0,1-1-1Zm1,8H38a3,3,0,0,0,3-3h1V33.636A12.988,12.988,0,0,0,37.705,56H12V14h1A3,3,0,0,0,16,17ZM44,60H10a3,3,0,0,1-3-3V13a3,3,0,0,1,3-3h3v2H12a2,2,0,0,0-2,2V56a2,2,0,0,0,2,2H41.008A12.93,12.93,0,0,0,46,59c.082,0,.162-.011.244-.012A3.017,3.017,0,0,1,44,60Zm2-3A11,11,0,1,1,57,46,11.013,11.013,0,0,1,46,57Z" style="fill:url(#New_Gradient_Swatch_copy)"/><path d="M53,43H49V39a1,1,0,0,0-1-1H44a1,1,0,0,0-1,1v4H39a1,1,0,0,0-1,1v4a1,1,0,0,0,1,1h4v4a1,1,0,0,0,1,1h4a1,1,0,0,0,1-1V49h4a1,1,0,0,0,1-1V44A1,1,0,0,0,53,43Zm-1,4H48a1,1,0,0,0-1,1v4H45V48a1,1,0,0,0-1-1H40V45h4a1,1,0,0,0,1-1V40h2v4a1,1,0,0,0,1,1h4Z" style="fill:url(#New_Gradient_Swatch_copy-2)"/><path d="M15,33H39a1,1,0,0,0,1-1V22a1,1,0,0,0-1-1H15a1,1,0,0,0-1,1V32A1,1,0,0,0,15,33Zm1-10H38v8H16Z" style="fill:url(#New_Gradient_Swatch_copy-3)"/><rect x="14" y="37" width="4" height="2" style="fill:url(#New_Gradient_Swatch_copy-4)"/><rect x="20" y="37" width="12" height="2" style="fill:url(#New_Gradient_Swatch_copy-5)"/><rect x="14" y="41" width="18" height="2" style="fill:url(#New_Gradient_Swatch_copy-6)"/><rect x="14" y="45" width="8" height="2" style="fill:url(#New_Gradient_Swatch_copy-7)"/><rect x="24" y="45" width="6" height="2" style="fill:url(#New_Gradient_Swatch_copy-8)"/></g></svg>
