<?xml version="1.0" encoding="iso-8859-1"?>
<!-- Generator: Adobe Illustrator 21.0.0, SVG Export Plug-In . SVG Version: 6.00 Build 0)  -->
<svg xmlns="http://www.w3.org/2000/svg" xmlns:xlink="http://www.w3.org/1999/xlink" version="1.1" id="Capa_1" x="0px" y="0px" viewBox="0 0 497 497" style="enable-background:new 0 0 497 497;" xml:space="preserve" width="512" height="512">
<g>
	<path style="fill:#E2A975;" d="M333.443,427.573c0,23.575-19.181,42.755-42.756,42.755H42.756C19.181,470.328,0,451.148,0,427.573   V81.509c0-23.575,19.181-42.755,42.756-42.755h247.931c23.576,0,42.756,19.18,42.756,42.755V427.573z"/>
	<path style="fill:#F0EEF0;" d="M298.879,427.573c0,4.522-3.669,8.19-8.192,8.19H42.756c-4.523,0-8.192-3.668-8.192-8.19V81.509   c0-4.522,3.668-8.19,8.192-8.19h247.931c4.523,0,8.192,3.668,8.192,10.69V427.573z"/>
	<path style="fill:#DFDDE0;" d="M290.687,73.318h-50c4.523,0,8.192,3.668,8.192,8.19v346.064c0,4.522-3.669,8.19-8.192,8.19h50   c4.523,0,8.192-3.668,8.192-8.19V81.509C298.879,76.986,295.21,73.318,290.687,73.318z"/>
	<g>
		<g>
			<path style="fill:#9B959D;" d="M85.919,162.69h158.942c4.142,0,7.5-3.357,7.5-7.5s-3.358-7.5-7.5-7.5H85.919     c-4.142,0-7.5,3.357-7.5,7.5S81.777,162.69,85.919,162.69z"/>
			<path style="fill:#9B959D;" d="M247.524,202.865H85.919c-4.142,0-7.5,3.357-7.5,7.5s3.358,7.5,7.5,7.5h161.604     c4.142,0,7.5-3.357,7.5-7.5S251.666,202.865,247.524,202.865z"/>
			<path style="fill:#9B959D;" d="M220.479,258.039H85.919c-4.142,0-7.5,3.357-7.5,7.5s3.358,7.5,7.5,7.5h134.56     c4.142,0,7.5-3.357,7.5-7.5S224.622,258.039,220.479,258.039z"/>
		</g>
		<path style="fill:#FFFFFF;stroke:#000000;stroke-width:15;stroke-linecap:round;stroke-linejoin:round;stroke-miterlimit:10;" d="    M110.501,320.712"/>
		<path style="fill:#FFFFFF;stroke:#000000;stroke-width:15;stroke-linecap:round;stroke-linejoin:round;stroke-miterlimit:10;" d="    M85.919,320.712"/>
	</g>
	<path style="fill:#FFE07D;" d="M187.977,49.175V21.812c0-11.552-8.982-21.414-20.527-21.8   c-12.071-0.403-21.983,9.263-21.983,21.243v27.92c0,0.028-0.023,0.05-0.051,0.05h-41.745c-3.357,0-6.078,2.721-6.078,6.078v27.524   c0,3.424,2.775,6.199,6.199,6.199h125.832c3.439,0,6.227-2.788,6.227-6.227V55.405c0-3.413-2.767-6.18-6.18-6.18h-41.644   C187.999,49.226,187.977,49.203,187.977,49.175z"/>
	<path style="fill:#FFD064;" d="M229.671,49.226h-41.644c-0.028,0-0.051-0.023-0.051-0.051V21.812   c0-11.552-8.982-21.414-20.527-21.8c-12.071-0.403-21.983,9.263-21.983,21.243v27.92c0,0.028-0.023,0.051-0.05,0.051h41.343   c3.413,0,6.18,2.767,6.18,6.18v27.395c0,3.439-2.788,6.227-6.227,6.227h42.912c3.439,0,6.227-2.788,6.227-6.227V55.405   C235.851,51.992,233.084,49.226,229.671,49.226z"/>
	<g>
		<g>
			<circle style="fill:#FFD064;" cx="391.395" cy="391.393" r="105.606"/>
			<path style="fill:#FFC250;" d="M391.395,285.786c-8.614,0-16.985,1.039-25,2.985C412.651,300.002,447,341.684,447,391.394     c0,49.711-34.349,91.392-80.605,102.622c8.016,1.946,16.386,2.985,25,2.985C449.719,497,497,449.719,497,391.394     C497,333.07,449.719,285.786,391.395,285.786z"/>
			<g>
				<path style="fill:#FFFFFF;" d="M445.537,428.447c-1.197,0-2.412-0.287-3.54-0.893l-55.072-29.553      c-2.435-1.307-3.954-3.846-3.954-6.608v-81.27c0-4.143,3.358-7.5,7.5-7.5s7.5,3.357,7.5,7.5v76.782l51.118,27.432      c3.65,1.958,5.021,6.505,3.062,10.154C450.799,427.014,448.21,428.447,445.537,428.447z"/>
			</g>
		</g>
	</g>
	<path style="fill:#95D6A4;" d="M477.125,139.75h-41c-4.142,0-7.5,3.357-7.5,7.5s3.358,7.5,7.5,7.5h18.115l-85.527,85.526   l-28.285-28.286c-1.406-1.406-3.314-2.196-5.303-2.196s-3.897,0.79-5.303,2.196L183.919,357.894l-28.697-28.697   c-2.929-2.928-7.678-2.928-10.606,0l-64,64c-2.929,2.93-2.929,7.678,0,10.607C82.081,405.268,84,406,85.919,406   s3.839-0.732,5.303-2.196l58.697-58.697l28.697,28.697c1.406,1.406,3.314,2.196,5.303,2.196s3.897-0.79,5.303-2.196L335.125,227.9   l28.285,28.286c1.406,1.406,3.314,2.196,5.303,2.196s3.896-0.79,5.303-2.196l95.608-95.607v29.671c0,4.143,3.358,7.5,7.5,7.5   s7.5-3.357,7.5-7.5v-43C484.625,143.107,481.267,139.75,477.125,139.75z"/>
</g>
<path style="fill:#FFF5CC;" d="M298.879,84.009"/>















</svg>
